<svg preserveAspectRatio="none" overflow="visible" style="display: block;" width="144.672" height="18.7138" viewBox="0 0 144.672 18.7138" fill="none" xmlns="http://www.w3.org/2000/svg">
<g id="Dreamari">
<path id="Vector" d="M137.872 18.7138V0H144.672V18.7138H137.872Z" fill="var(--fill-0, white)"/>
<path id="Vector_2" d="M119.53 18.7138V0H127.748C128.613 0 129.421 0.0727218 130.172 0.218166C130.932 0.36361 131.643 0.601976 132.305 0.933265C132.976 1.26455 133.546 1.67665 134.014 2.16954C134.491 2.66243 134.863 3.27653 135.129 4.01183C135.404 4.74713 135.541 5.57535 135.541 6.49649C135.541 7.87821 135.263 8.92864 134.705 9.64778C134.148 10.3588 133.218 10.9325 131.917 11.3689V11.5143C131.934 11.5305 131.982 11.5709 132.063 11.6355C132.144 11.6921 132.2 11.7365 132.233 11.7688C132.265 11.7931 132.317 11.8375 132.39 11.9022C132.463 11.9587 132.519 12.0112 132.56 12.0597C132.608 12.1001 132.661 12.1526 132.717 12.2173C132.782 12.2819 132.843 12.3506 132.899 12.4233C132.956 12.488 133.008 12.5567 133.057 12.6294L137.129 18.7138H129.287L126.306 12.7021H126.185V18.7138H119.53ZM126.185 5.11478V8.2903H126.657C126.98 8.2903 127.255 8.27414 127.481 8.24182C127.716 8.20142 127.946 8.13274 128.172 8.03578C128.407 7.93881 128.584 7.78125 128.706 7.56308C128.827 7.33684 128.887 7.05807 128.887 6.72678C128.887 6.44397 128.847 6.20561 128.766 6.01168C128.685 5.80968 128.58 5.65211 128.451 5.53899C128.33 5.42587 128.168 5.33698 127.966 5.27234C127.764 5.2077 127.57 5.1673 127.384 5.15114C127.199 5.1269 126.972 5.11478 126.706 5.11478H126.185Z" fill="var(--fill-0, white)"/>
<path id="Vector_3" d="M106.018 16.3746L105.109 18.7138H97.91L107.364 0H114.891L118.611 18.7138H111.412L111.157 16.3746H106.018ZM107.933 11.9385H110.661C110.45 9.13469 110.345 7.23179 110.345 6.22985H110.091L107.933 11.9385Z" fill="var(--fill-0, white)"/>
<path id="Vector_4" d="M72.4331 18.7138L75.4631 0H82.4687L85.0503 9.82959H85.22C85.3816 8.73876 85.5392 7.91053 85.6927 7.34492L87.8016 0H94.7345L97.813 18.7138H91.2317L90.3105 8.45999H90.1893C90.0277 9.28417 89.8782 9.90635 89.7409 10.3265L87.038 18.7138H83.0626L80.6264 10.7992C80.4001 10.0558 80.2628 9.27609 80.2143 8.45999H79.984C79.9113 9.54274 79.8547 10.2982 79.8143 10.7265L79.0144 18.7138H72.4331Z" fill="var(--fill-0, white)"/>
<path id="Vector_5" d="M59.3273 16.3746L58.7819 18.7138H51.5824L58.0789 0H65.6056L72.2839 18.7138H65.0844L64.4663 16.3746H59.3273ZM60.5393 11.9385H63.2664L62.4785 8.64179C62.3331 8.03578 62.1836 7.23179 62.0301 6.22985H61.7756L60.5393 11.9385Z" fill="var(--fill-0, white)"/>
<path id="Vector_6" d="M38.1801 18.7138V0H50.761V5.11478H45.028V6.89647H50.264V11.7688H45.028V13.599H50.967V18.7138H38.1801Z" fill="var(--fill-0, white)"/>
<path id="Vector_7" d="M19.9867 18.7138V0H28.2042C29.0688 0 29.8768 0.0727218 30.6283 0.218166C31.3878 0.36361 32.0989 0.601976 32.7615 0.933265C33.4321 1.26455 34.0018 1.67665 34.4704 2.16954C34.9472 2.66243 35.3189 3.27653 35.5855 4.01183C35.8602 4.74713 35.9976 5.57535 35.9976 6.49649C35.9976 7.87821 35.7188 8.92864 35.1613 9.64778C34.6038 10.3588 33.6745 10.9325 32.3736 11.3689V11.5143C32.3898 11.5305 32.4383 11.5709 32.5191 11.6355C32.5999 11.6921 32.6564 11.7365 32.6888 11.7688C32.7211 11.7931 32.7736 11.8375 32.8463 11.9022C32.919 11.9587 32.9756 12.0112 33.016 12.0597C33.0645 12.1001 33.117 12.1526 33.1736 12.2173C33.2382 12.2819 33.2988 12.3506 33.3554 12.4233C33.4119 12.488 33.4645 12.5567 33.5129 12.6294L37.5854 18.7138H29.7435L26.7619 12.7021H26.6407V18.7138H19.9867ZM26.6407 5.11478V8.2903H27.1134C27.4366 8.2903 27.7113 8.27414 27.9376 8.24182C28.1719 8.20142 28.4022 8.13274 28.6284 8.03578C28.8628 7.93881 29.0405 7.78125 29.1617 7.56308C29.2829 7.33684 29.3435 7.05807 29.3435 6.72678C29.3435 6.44397 29.3031 6.20561 29.2223 6.01168C29.1415 5.80968 29.0365 5.65211 28.9072 5.53899C28.786 5.42587 28.6244 5.33698 28.4224 5.27234C28.2204 5.2077 28.0265 5.1673 27.8406 5.15114C27.6548 5.1269 27.4285 5.11478 27.1619 5.11478H26.6407Z" fill="var(--fill-0, white)"/>
<path id="Vector_8" d="M0 18.7138V0H6.9207C8.20546 0 9.39325 0.113123 10.4841 0.339369C11.583 0.557535 12.6011 0.917105 13.5384 1.41808C14.4757 1.91097 15.2716 2.52911 15.9261 3.27249C16.5806 4.00779 17.0937 4.91681 17.4654 5.99956C17.8371 7.07423 18.0229 8.28222 18.0229 9.62354C18.0229 11.4497 17.6189 13.0536 16.8109 14.4353C16.0109 15.817 14.8999 16.8755 13.4778 17.6108C12.0638 18.3461 10.4437 18.7138 8.61755 18.7138H0ZM6.7995 5.85412V13.1021H7.22371C8.41958 13.1021 9.38517 12.8112 10.1205 12.2294C10.8558 11.6476 11.2234 10.7709 11.2234 9.5993C11.2234 7.10251 9.89018 5.85412 7.22371 5.85412H6.7995Z" fill="var(--fill-0, white)"/>
</g>
</svg>
